<?xml version="1.0" encoding="UTF-8" standalone="no"?>
<!-- Created with Inkscape (http://www.inkscape.org/) -->

<svg
   version="1.1"
   id="svg1"
   width="24"
   height="24"
   viewBox="0 0 24 24"
   sodipodi:docname="pipewire3.svg"
   xml:space="preserve"
   inkscape:version="1.4.2 (ebf0e940d0, 2025-05-08)"
   inkscape:export-filename="pipewire3.svg"
   inkscape:export-xdpi="960"
   inkscape:export-ydpi="960"
   xmlns:inkscape="http://www.inkscape.org/namespaces/inkscape"
   xmlns:sodipodi="http://sodipodi.sourceforge.net/DTD/sodipodi-0.dtd"
   xmlns="http://www.w3.org/2000/svg"
   xmlns:svg="http://www.w3.org/2000/svg"><defs
     id="defs1"><linearGradient
       x1="22.1875"
       y1="23.0625"
       x2="5.318624"
       y2="5.3239861"
       gradientUnits="userSpaceOnUse"
       gradientTransform="scale(0.75)"
       spreadMethod="pad"
       id="linearGradient3"><stop
         style="stop-opacity:1;stop-color:#1a1a1a"
         offset="0"
         id="stop1" /><stop
         style="stop-opacity:1;stop-color:#666666"
         offset="0.997054"
         id="stop2" /><stop
         style="stop-color:#008494;stop-opacity:1;"
         offset="1"
         id="stop3" /></linearGradient><clipPath
       id="b78d52eeec"><path
         d="M 38 109 L 49 109 L 49 193.050781 L 38 193.050781 Z M 38 109 "
         clip-rule="nonzero"
         id="path1-6" /></clipPath><clipPath
       id="f1dd1729dd"><path
         d="M 9.914062 11.648438 L 215.304688 11.648438 L 215.304688 193.050781 L 9.914062 193.050781 Z M 9.914062 11.648438 "
         clip-rule="nonzero"
         id="path2-7" /></clipPath><clipPath
       id="461ab67ca8"><path
         d="M 176 109 L 187 109 L 187 193.050781 L 176 193.050781 Z M 176 109 "
         clip-rule="nonzero"
         id="path3-5" /></clipPath><clipPath
       id="4af97703e1"><path
         d="M 57.65625 132 L 67 132 L 67 163 L 57.65625 163 Z M 57.65625 132 "
         clip-rule="nonzero"
         id="path4" /></clipPath><clipPath
       id="9352d6c422"><path
         d="M 91 108.640625 L 100 108.640625 L 100 186.597656 L 91 186.597656 Z M 91 108.640625 "
         clip-rule="nonzero"
         id="path5" /></clipPath><clipPath
       id="da769704d0"><path
         d="M 158 132 L 167.097656 132 L 167.097656 163 L 158 163 Z M 158 132 "
         clip-rule="nonzero"
         id="path6" /></clipPath><clipPath
       id="01a57c92cb"><path
         d="M 63.542969 46 L 119 46 L 119 102.179688 L 63.542969 102.179688 Z M 63.542969 46 "
         clip-rule="nonzero"
         id="path7" /></clipPath><clipPath
       id="de1468748f"><path
         d="M 113 37.714844 L 153.492188 37.714844 L 153.492188 78 L 113 78 Z M 113 37.714844 "
         clip-rule="nonzero"
         id="path8" /></clipPath></defs><sodipodi:namedview
     id="namedview1"
     pagecolor="#ffffff"
     bordercolor="#000000"
     borderopacity="0.25"
     inkscape:showpageshadow="2"
     inkscape:pageopacity="0.0"
     inkscape:pagecheckerboard="0"
     inkscape:deskcolor="#d1d1d1"
     inkscape:zoom="5.7484473"
     inkscape:cx="-32.704483"
     inkscape:cy="3.3922203"
     inkscape:window-width="1920"
     inkscape:window-height="1005"
     inkscape:window-x="0"
     inkscape:window-y="0"
     inkscape:window-maximized="1"
     inkscape:current-layer="g1"><inkscape:page
       x="0"
       y="0"
       inkscape:label="1"
       id="page1"
       width="24"
       height="24"
       margin="0"
       bleed="0" /></sodipodi:namedview><g
     id="g1"
     inkscape:groupmode="layer"
     inkscape:label="1"><path
       id="path3"
       d="m 5.699,0.75 h 6.602 c 2.742,0 4.949,2.207 4.949,4.949 v 6.602 c 0,2.742 -2.207,4.949 -4.949,4.949 H 5.699 C 2.957,17.25 0.75,15.043 0.75,12.301 V 5.699 C 0.75,2.957 2.957,0.75 5.699,0.75 Z"
       style="fill:url(#linearGradient3);stroke:none"
       transform="scale(1.3333333)" /><g
       clip-path="url(#b78d52eeec)"
       id="g9"
       style="fill:#ffffff"
       transform="matrix(0.07981905,0,0,0.07981905,3.0116267,3.8305515)"><path
         fill="#000000"
         d="m 45.316406,109.68359 h -3.4375 c -1.753906,0 -3.175781,1.42188 -3.175781,3.17188 v 77.02344 c 0,1.76171 1.421875,3.17187 3.175781,3.17187 h 3.4375 c 1.753906,0 3.175782,-1.41406 3.175782,-3.17187 v -77.02344 c 0,-1.75 -1.421876,-3.17188 -3.175782,-3.17188 z m 0,0"
         fill-opacity="1"
         fill-rule="nonzero"
         id="path9"
         style="fill:#ffffff" /></g><g
       clip-path="url(#f1dd1729dd)"
       id="g10"
       style="fill:#ffffff"
       transform="matrix(0.07981905,0,0,0.07981905,3.0116267,3.8305515)"><path
         fill="#000000"
         d="m 206.89062,117.50781 c 0.42188,-3.60156 0.65235,-7.26172 0.65235,-10.98047 0,-52.316402 -42.58985,-94.878902 -94.93359,-94.878902 -52.351568,0 -94.937505,42.5625 -94.937505,94.878902 0,3.71485 0.230469,7.37891 0.65625,10.98047 -1.847656,1.14844 -5.3125,4.03125 -8.335937,10.6211 v 46.47656 c 4.367187,9.51562 9.660156,11.30078 9.660156,11.30078 l 16.933594,7.14062 V 109.6875 L 28.25,113.20703 C 28.074219,111 27.957031,108.77734 27.957031,106.53125 c 0,-46.648438 37.976563,-84.601562 84.652349,-84.601562 46.67968,0 84.65234,37.953124 84.65234,84.601562 0,2.24609 -0.11719,4.46875 -0.28906,6.67578 l -8.33594,-3.51953 v 83.36328 l 16.92969,-7.13672 c 0,0 5.29687,-1.78515 9.66015,-11.30078 v -46.47656 c -3.01953,-6.58984 -6.48828,-9.47266 -8.33594,-10.625 z m 0,0"
         fill-opacity="1"
         fill-rule="nonzero"
         id="path10"
         style="fill:#ffffff" /></g><g
       clip-path="url(#461ab67ca8)"
       id="g11"
       style="fill:#ffffff"
       transform="matrix(0.07981905,0,0,0.07981905,3.0116267,3.8305515)"><path
         fill="#000000"
         d="m 183.33984,109.68359 h -3.4414 c -1.75391,0 -3.17578,1.42188 -3.17578,3.17188 v 77.02344 c 0,1.76171 1.42187,3.17187 3.17578,3.17187 h 3.4375 c 1.7539,0 3.17578,-1.41406 3.17578,-3.17187 v -77.02344 c 0.004,-1.75 -1.41797,-3.17188 -3.17188,-3.17188 z m 0,0"
         fill-opacity="1"
         fill-rule="nonzero"
         id="path11"
         style="fill:#ffffff" /></g><g
       clip-path="url(#4af97703e1)"
       id="g12"
       style="fill:#80ffe6"
       transform="matrix(0.07981905,0,0,0.07981905,3.0116267,3.8305515)"><path
         fill="#000000"
         d="m 61.871094,132.48828 c -2.328125,0 -4.214844,1.89453 -4.214844,4.22656 V 158.5 c 0,2.33203 1.886719,4.22656 4.214844,4.22656 2.328125,0 4.214844,-1.89453 4.214844,-4.22656 v -21.78516 c 0,-2.33203 -1.886719,-4.22656 -4.214844,-4.22656 z m 0,0"
         fill-opacity="1"
         fill-rule="nonzero"
         id="path12"
         style="fill:#80ffe6" /></g><path
       fill="#000000"
       d="m 9.2936354,13.454671 c -0.1858288,0 -0.3367366,0.15122 -0.3367366,0.33736 v 3.64268 c 0,0.18614 0.1509078,0.337049 0.3367366,0.337049 0.1858287,0 0.3364248,-0.150909 0.3364248,-0.337049 v -3.643615 c 0,-0.186141 -0.1505961,-0.336425 -0.3364248,-0.336425 z m 0,0"
       fill-opacity="1"
       fill-rule="nonzero"
       id="path13"
       style="fill:#55ffdd;stroke-width:0.0798191" /><g
       clip-path="url(#9352d6c422)"
       id="g14"
       style="fill:#00ffff"
       transform="matrix(0.07981905,0,0,0.07981905,3.0116267,3.8305515)"><path
         fill="#000000"
         d="m 95.546875,108.64844 c -2.328125,0 -4.21875,1.89453 -4.21875,4.22656 v 69.48828 c 0,2.33203 1.890625,4.22266 4.21875,4.22266 2.324219,0 4.214844,-1.89063 4.214844,-4.22266 v -69.5 c -0.01172,-2.33203 -1.890625,-4.21484 -4.214844,-4.21484 z m 0,0"
         fill-opacity="1"
         fill-rule="nonzero"
         id="path14"
         style="fill:#00ffff" /></g><path
       fill="#000000"
       d="m 11.981292,13.454671 c -0.185828,0 -0.336424,0.15122 -0.336424,0.33736 v 3.64268 c 0,0.18614 0.150596,0.337049 0.336424,0.337049 0.18583,0 0.336737,-0.150909 0.336737,-0.337049 v -3.643615 c 0,-0.186141 -0.150907,-0.336425 -0.336737,-0.336425 z m 0,0"
       fill-opacity="1"
       fill-rule="nonzero"
       id="path15"
       style="fill:#00ffff;stroke-width:0.0798191" /><path
       fill="#000000"
       d="m 13.324809,14.40564 c -0.185828,0 -0.336424,0.15122 -0.336424,0.33736 v 1.738871 c 0,0.18614 0.150596,0.33736 0.336424,0.33736 0.185829,0 0.336425,-0.15122 0.336425,-0.33736 V 14.743 c 0,-0.18614 -0.150596,-0.33736 -0.336425,-0.33736 z m 0,0"
       fill-opacity="1"
       fill-rule="nonzero"
       id="path16"
       style="fill:#55ffdd;stroke-width:0.0798191" /><path
       fill="#000000"
       d="m 14.669261,13.454671 c -0.185828,0 -0.336736,0.15122 -0.336736,0.33736 v 3.64268 c 0,0.18614 0.150908,0.337049 0.336736,0.337049 0.185517,0 0.336425,-0.150909 0.336425,-0.337049 v -3.643615 c 0,-0.186141 -0.150908,-0.336425 -0.336425,-0.336425 z m 0,0"
       fill-opacity="1"
       fill-rule="nonzero"
       id="path17"
       style="fill:#80ffe6;stroke-width:0.0798191" /><g
       clip-path="url(#da769704d0)"
       id="g18"
       style="fill:#aaffee"
       transform="matrix(0.07981905,0,0,0.07981905,3.0116267,3.8305515)"><path
         fill="#000000"
         d="m 162.87891,132.48828 c -2.32422,0 -4.21485,1.89453 -4.21485,4.22656 V 158.5 c 0,2.33203 1.89063,4.22656 4.21485,4.22656 2.32812,0 4.21875,-1.89453 4.21875,-4.22656 v -21.78516 c 0,-2.33203 -1.89063,-4.22656 -4.21875,-4.22656 z m 0,0"
         fill-opacity="1"
         fill-rule="nonzero"
         id="path18"
         style="fill:#aaffee" /></g><g
       id="g2"
       transform="rotate(-175.79518,11.669867,9.4184528)"><g
         clip-path="url(#01a57c92cb)"
         id="g19"
         style="fill:#ffffff"
         transform="matrix(0.07981905,0,0,0.07981905,3.0116267,3.8305515)"><path
           fill="#000000"
           d="m 91.273438,62.191406 c 3.261718,0 6.386718,1.296875 8.695312,3.601563 2.30859,2.308593 3.60156,5.4375 3.60156,8.699219 0,3.261718 -1.29297,6.390624 -3.60156,8.695312 -2.308594,2.308594 -5.433594,3.605469 -8.695312,3.605469 -3.265626,0 -6.394532,-1.296875 -8.699219,-3.605469 -2.308594,-2.304688 -3.601563,-5.433594 -3.601563,-8.695312 0,-3.261719 1.292969,-6.390626 3.601563,-8.699219 2.304687,-2.304688 5.433593,-3.601563 8.699219,-3.601563 z M 87.164062,46.761719 c -0.476562,0 -0.808593,0.414062 -0.859374,0.921875 l -0.601563,5.699218 c -1.910156,0.503907 -3.742187,1.265626 -5.449219,2.261719 L 75.796875,52.035156 C 75.402344,51.714844 74.875,51.652344 74.539062,51.992188 l -5.835937,5.832031 c -0.335937,0.335937 -0.28125,0.867187 0.04297,1.261719 l 3.65625,4.390624 c -1,1.714844 -1.765625,3.554688 -2.265625,5.476563 l -5.671875,0.597656 c -0.507813,0.05078 -0.921875,0.382813 -0.921875,0.859375 v 8.25 c 0,0.476563 0.414062,0.8125 0.921875,0.859375 l 5.65625,0.515625 c 0.511718,1.917969 1.277344,3.757813 2.28125,5.464844 l -3.613282,4.464844 c -0.320312,0.398437 -0.378906,0.921875 -0.04297,1.261718 l 5.832031,5.832032 c 0.339844,0.335937 0.871094,0.28125 1.261719,-0.04297 l 4.414062,-3.675781 c 1.707032,0.992187 3.539063,1.746094 5.449219,2.246094 l 0.601563,5.710943 c 0.05078,0.50781 0.382812,0.92578 0.859374,0.92578 h 8.25 c 0.476563,0 0.8125,-0.41797 0.859376,-0.92578 l 0.523437,-5.707037 c 1.90625,-0.507813 3.738286,-1.273438 5.437506,-2.273438 l 4.42578,3.679688 c 0.39062,0.328125 0.92187,0.382812 1.25781,0.04297 l 5.83594,-5.832031 c 0.33593,-0.335937 0.27734,-0.863281 -0.0469,-1.261719 l -3.6289,-4.480468 c 0.98437,-1.699219 1.73828,-3.519532 2.23437,-5.417969 l 5.76563,-0.527344 C 118.58594,79.472656 119,79.136719 119,78.660156 v -8.25 c 0,-0.476562 -0.41406,-0.808594 -0.92187,-0.859375 l -5.7461,-0.605469 c -0.50781,-1.902343 -1.26562,-3.726562 -2.25781,-5.425781 L 113.75,59.105469 c 0.32813,-0.394531 0.38281,-0.925781 0.0469,-1.261719 l -5.83594,-5.835938 c -0.33594,-0.335937 -0.86328,-0.277343 -1.26172,0.04688 l -4.45703,3.609374 c -1.70703,-0.996093 -3.539065,-1.753906 -5.445315,-2.257812 l -0.523437,-5.722656 c -0.04688,-0.507813 -0.382813,-0.921875 -0.859376,-0.921875 h -8.25"
           fill-opacity="1"
           fill-rule="nonzero"
           id="path19"
           style="fill:#ffffff" /></g><g
         clip-path="url(#de1468748f)"
         id="g20"
         style="fill:#ffffff"
         transform="matrix(0.07981905,0,0,0.07981905,3.0116267,3.8305515)"><path
           fill="#000000"
           d="m 134.9375,48.855469 c 0.79297,0.121093 1.56641,0.347656 2.29687,0.675781 2.15235,0.964844 3.82813,2.742188 4.66797,4.941406 0.83985,2.203125 0.76953,4.644532 -0.19531,6.796875 -0.96094,2.148438 -2.73828,3.824219 -4.94141,4.664063 -2.19921,0.839844 -4.64453,0.769531 -6.79296,-0.195313 -2.14844,-0.960937 -3.82813,-2.738281 -4.66407,-4.9375 -0.83984,-2.203125 -0.76953,-4.648437 0.19141,-6.796875 0.79688,-1.769531 2.14844,-3.234375 3.85156,-4.164062 1.70313,-0.929688 3.66406,-1.273438 5.58594,-0.984375 z m 4.03516,-10.742188 c -0.27735,-0.05469 -0.5586,0.113281 -0.71875,0.394531 l -2.07813,3.574219 c -1.40625,-0.230469 -2.83984,-0.269531 -4.25781,-0.117187 l -1.8711,-3.691406 c -0.16796,-0.332032 -0.49609,-0.523438 -0.8164,-0.402344 l -5.56641,2.121094 c -0.32031,0.121093 -0.4414,0.488281 -0.34375,0.84375 l 1.11328,3.96875 c -1.16796,0.835937 -2.21093,1.824218 -3.10937,2.941406 l -3.91406,-1.28125 c -0.35157,-0.113282 -0.72266,-0.01953 -0.85938,0.296875 l -2.4375,5.433593 c -0.14062,0.3125 0.0312,0.65625 0.35547,0.835938 l 3.57422,2.015625 c -0.23047,1.410156 -0.26953,2.847656 -0.10938,4.273437 l -3.69921,1.871094 c -0.32813,0.167969 -0.52344,0.496094 -0.40235,0.820313 l 2.1211,5.5625 c 0.12109,0.320312 0.48828,0.441406 0.84375,0.34375 l 3.99218,-1.117188 c 0.83203,1.15625 1.81641,2.195313 2.92969,3.089844 l -1.29297,3.9375 c -0.11328,0.351563 -0.0195,0.722656 0.29297,0.863281 l 5.4375,2.4375 c 0.3125,0.136719 0.66016,-0.03516 0.83984,-0.355468 l 2.02735,-3.605469 c 1.40625,0.226562 2.83984,0.261719 4.25781,0.105469 l 1.82812,3.730468 c 0.16016,0.332032 0.49219,0.523438 0.81641,0.402344 l 5.5625,-2.121094 c 0.32031,-0.121094 0.4375,-0.488281 0.34375,-0.84375 l -1.06641,-4.027344 c 1.14844,-0.824218 2.1836,-1.804687 3.07032,-2.90625 l 3.95312,1.351563 c 0.34766,0.121094 0.72266,0.01953 0.86328,-0.292969 l 2.4336,-5.4375 c 0.14062,-0.3125 -0.0312,-0.652344 -0.35157,-0.835937 L 149.125,60.195312 c 0.23047,-1.398437 0.26562,-2.824218 0.11328,-4.238281 l 3.72656,-1.824219 c 0.33203,-0.160156 0.52344,-0.496093 0.40235,-0.816406 L 151.24609,47.75 c -0.125,-0.320312 -0.48828,-0.4375 -0.84375,-0.34375 l -4.0039,1.0625 c -0.83203,-1.15625 -1.8125,-2.199219 -2.92188,-3.09375 l 1.34375,-3.925781 c 0.1211,-0.347657 0.0195,-0.722657 -0.29297,-0.859375 l -5.4375,-2.4375 c -0.0352,-0.01563 -0.0781,-0.03125 -0.11718,-0.03906"
           fill-opacity="1"
           fill-rule="nonzero"
           id="path20"
           style="fill:#ffffff" /></g></g></g></svg>
